<?xml version="1.0" standalone="no"?>
<!DOCTYPE svg PUBLIC "-//W3C//DTD SVG 20010904//EN"
 "http://www.w3.org/TR/2001/REC-SVG-20010904/DTD/svg10.dtd">
<svg version="1.0" xmlns="http://www.w3.org/2000/svg"
 width="1545.000000pt" height="1545.000000pt" viewBox="0 0 1545.000000 1545.000000"
 preserveAspectRatio="xMidYMid meet">
<metadata>
Created by potrace 1.11, written by Peter Selinger 2001-2013
</metadata>
<g transform="translate(0.000000,1545.000000) scale(0.100000,-0.100000)"
fill="#000000" stroke="none">
<path d="M7445 15444 c-176 -12 -398 -37 -531 -60 -810 -139 -1541 -505 -2194
-1098 -52 -47 -99 -86 -104 -86 -4 0 -75 24 -156 54 -292 106 -699 219 -942
261 l-38 6 0 -464 0 -464 235 -77 c129 -42 236 -80 239 -84 3 -5 -29 -60 -71
-123 -131 -195 -333 -543 -333 -573 0 -4 46 34 103 85 131 118 323 272 468
375 178 127 143 121 294 55 154 -68 355 -163 355 -168 0 -2 -25 -33 -56 -69
-151 -178 -252 -396 -300 -649 -24 -121 -24 -356 0 -485 78 -431 353 -800 742
-998 194 -99 359 -141 584 -149 255 -9 471 39 690 153 140 73 253 159 372 283
l97 100 44 -62 c254 -359 499 -809 652 -1197 31 -80 59 -147 61 -149 4 -4 6 2
70 164 92 237 245 544 397 800 92 155 280 435 292 435 5 0 24 -19 40 -41 80
-109 290 -276 448 -356 100 -50 285 -109 406 -129 147 -24 386 -15 531 19 249
60 462 174 644 347 100 96 99 83 -9 -70 -97 -136 -197 -258 -333 -406 -302
-327 -625 -606 -1352 -1168 -491 -379 -598 -469 -855 -713 -522 -496 -981
-990 -1306 -1403 -806 -1025 -1107 -1896 -958 -2775 25 -146 70 -331 98 -402
129 -326 413 -662 874 -1032 429 -345 1064 -744 1657 -1041 87 -44 214 -115
282 -158 741 -472 1779 -981 2684 -1316 l144 -54 9 37 c6 20 21 101 35 181
163 931 212 1906 141 2789 -59 726 -189 1355 -442 2126 -295 899 -747 1848
-1213 2545 -56 83 -100 155 -98 160 2 5 59 52 128 106 509 396 939 810 1235
1189 199 255 405 610 513 887 117 297 190 605 223 943 17 171 17 532 0 670
-49 414 -176 804 -380 1169 -34 60 -61 112 -61 116 0 4 74 30 165 59 l165 53
0 464 c0 298 -4 464 -10 464 -5 0 -65 -12 -132 -26 -235 -49 -545 -135 -730
-201 l-98 -35 -77 69 c-270 242 -659 499 -990 655 -517 243 -1063 389 -1648
443 -169 15 -585 26 -700 19z m570 -1109 c514 -54 1027 -197 1439 -402 122
-60 326 -176 326 -185 0 -4 -42 -35 -92 -69 -679 -454 -1234 -1098 -1644
-1906 -142 -282 -282 -625 -360 -887 l-26 -90 -33 110 c-144 473 -393 995
-688 1439 -298 449 -665 848 -1062 1155 -101 78 -342 240 -470 315 -53 31 -93
61 -88 65 16 15 391 159 544 209 450 146 877 227 1399 265 119 8 612 -4 755
-19z m-2831 -1472 c45 -25 118 -70 164 -100 l83 -54 -58 -43 c-32 -23 -66 -52
-76 -63 -18 -21 -18 -21 19 -33 81 -27 144 -122 144 -216 -1 -150 -178 -255
-314 -187 -45 23 -51 8 -39 -99 22 -184 79 -303 203 -429 125 -126 299 -198
478 -199 246 0 495 148 600 358 14 28 29 52 33 52 12 0 249 -275 249 -289 0
-17 -101 -140 -163 -198 -156 -146 -357 -244 -558 -274 -104 -15 -322 -6 -409
17 -379 100 -667 385 -767 762 -23 85 -26 116 -26 257 0 139 4 172 26 256 46
175 131 330 252 458 37 39 70 71 73 71 3 0 41 -21 86 -47z m5138 -71 c77 -93
117 -155 158 -244 174 -386 99 -843 -192 -1153 -194 -208 -469 -326 -758 -326
-130 -1 -207 11 -325 48 -205 65 -412 215 -529 386 l-39 56 39 48 c71 88 205
238 215 241 5 2 9 -2 9 -9 0 -29 95 -161 159 -222 78 -73 162 -123 266 -158
59 -20 90 -24 200 -24 143 0 213 16 325 76 216 115 359 350 360 593 0 61 -2
67 -17 61 -60 -25 -112 -35 -148 -29 -79 13 -135 55 -175 133 -15 28 -16 126
-2 162 17 44 74 101 121 122 l43 19 -33 35 c-19 19 -54 49 -77 65 -37 25 -42
33 -30 43 7 8 80 54 162 104 l149 90 28 -20 c15 -10 56 -54 91 -97z"/>
<path d="M6415 2194 c-274 -38 -397 -73 -600 -169 -349 -167 -678 -484 -892
-858 -34 -61 -61 -112 -59 -114 1 -2 36 11 77 28 240 99 524 186 704 214 104
17 387 26 401 13 4 -5 0 -16 -8 -25 -8 -10 -54 -80 -102 -156 -100 -158 -159
-276 -211 -427 -35 -102 -96 -322 -90 -328 1 -1 43 28 93 65 135 101 277 188
462 281 l165 83 7 -96 c26 -355 249 -617 585 -687 369 -76 736 153 839 522 23
83 24 289 2 368 l-15 52 26 0 c69 0 426 -82 598 -138 45 -14 85 -23 88 -20 13
13 -172 302 -295 459 -389 500 -825 810 -1282 910 -70 15 -139 21 -278 24
-102 2 -198 1 -215 -1z"/>
</g>
</svg>
