<?xml version="1.0" standalone="no"?>
<!DOCTYPE svg PUBLIC "-//W3C//DTD SVG 20010904//EN"
 "http://www.w3.org/TR/2001/REC-SVG-20010904/DTD/svg10.dtd">
<svg version="1.0" xmlns="http://www.w3.org/2000/svg"
 width="1546.000000pt" height="1546.000000pt" viewBox="0 0 1546.000000 1546.000000"
 preserveAspectRatio="xMidYMid meet">
<metadata>
Created by potrace 1.11, written by Peter Selinger 2001-2013
</metadata>
<g transform="translate(0.000000,1546.000000) scale(0.100000,-0.100000)"
fill="#000000" stroke="none">
<path d="M7334 15439 c-351 -24 -795 -120 -1141 -248 -518 -191 -1072 -537
-1480 -924 l-72 -69 -108 41 c-295 111 -771 245 -986 276 l-47 7 2 -468 3
-467 150 -49 c83 -26 189 -62 237 -79 l86 -31 -82 -121 c-144 -215 -346 -570
-333 -584 4 -3 46 32 94 77 151 141 613 500 644 500 11 0 281 -117 395 -172
l92 -44 -64 -78 c-166 -202 -274 -458 -305 -719 -14 -117 -6 -326 15 -432 154
-762 893 -1256 1651 -1103 279 56 513 185 724 396 62 63 116 110 120 105 100
-146 238 -362 306 -478 151 -258 326 -623 414 -862 13 -35 26 -63 30 -63 3 0
23 48 45 107 84 234 265 602 434 883 74 123 244 383 266 407 9 10 23 -1 64
-50 202 -236 502 -407 816 -464 124 -23 360 -22 486 1 257 46 515 175 710 353
83 76 83 76 -12 -59 -148 -210 -331 -415 -611 -685 -227 -219 -540 -478 -1067
-883 -520 -400 -571 -443 -947 -802 -529 -505 -983 -1004 -1318 -1450 -732
-970 -999 -1792 -859 -2643 36 -219 86 -392 154 -528 290 -579 1186 -1289
2446 -1938 110 -56 280 -153 379 -214 618 -385 1358 -762 2125 -1080 249 -104
616 -245 635 -245 26 0 112 525 160 975 98 925 83 1874 -41 2680 -202 1310
-828 2899 -1591 4040 l-94 140 33 27 c18 14 101 80 183 145 768 610 1253 1159
1551 1754 230 459 337 911 351 1474 8 339 -23 589 -113 905 -59 210 -194 522
-314 728 -28 48 -29 53 -13 59 10 4 86 28 168 54 l150 47 3 466 2 466 -25 0
c-77 0 -476 -101 -772 -195 -94 -30 -175 -55 -180 -55 -4 0 -55 41 -113 91
-736 636 -1696 1013 -2745 1079 -184 11 -514 11 -691 -1z m591 -1100 c548 -42
1058 -176 1521 -399 190 -91 360 -189 348 -200 -5 -4 -52 -36 -104 -70 -249
-166 -467 -348 -695 -581 -381 -389 -686 -822 -945 -1339 -138 -276 -267 -591
-334 -815 -15 -49 -29 -97 -32 -105 -3 -8 -32 64 -64 160 -287 869 -814 1705
-1427 2262 -255 232 -543 443 -792 580 -33 18 -61 36 -61 39 0 13 266 120 465
187 722 243 1416 335 2120 281z m-2737 -1475 c102 -57 237 -144 237 -152 0 -5
-29 -33 -64 -63 -36 -30 -65 -58 -65 -63 -1 -5 17 -15 39 -23 123 -43 178
-191 112 -308 -52 -92 -182 -133 -275 -86 -23 12 -44 21 -47 21 -3 0 -5 -31
-5 -68 0 -305 189 -561 488 -660 66 -22 95 -26 202 -26 108 0 136 4 203 26
184 61 311 171 422 363 9 15 26 0 128 -117 64 -75 117 -141 117 -148 0 -19
-82 -120 -157 -191 -159 -154 -357 -246 -588 -276 -346 -45 -680 85 -916 354
-313 357 -332 917 -46 1298 31 41 138 155 146 155 2 0 33 -16 69 -36z m5130
-53 c104 -120 177 -246 220 -381 83 -257 56 -564 -70 -800 -318 -597 -1087
-742 -1605 -302 -64 54 -193 206 -193 227 0 10 94 126 188 230 l50 57 33 -64
c45 -83 155 -198 243 -253 39 -24 107 -56 151 -71 71 -24 94 -27 210 -27 115
0 139 3 210 27 283 97 466 334 482 629 3 53 3 97 1 97 -3 0 -25 -9 -49 -20
-47 -21 -131 -26 -172 -11 -40 16 -99 73 -118 116 -25 55 -24 128 2 183 23 47
87 100 132 109 15 3 27 9 27 13 0 9 -84 86 -125 116 l-28 20 69 44 c183 116
246 149 265 139 10 -5 45 -40 77 -78z"/>
<path d="M6351 2184 c-486 -71 -929 -343 -1243 -766 -118 -159 -239 -360 -225
-375 3 -2 19 3 37 12 108 56 501 186 660 219 160 32 480 50 480 27 0 -6 -38
-68 -84 -138 -114 -175 -166 -276 -220 -423 -47 -131 -110 -354 -104 -370 2
-5 48 24 103 65 127 94 335 219 492 296 68 32 125 59 128 59 3 0 5 -35 5 -78
0 -322 241 -621 562 -697 91 -21 256 -19 347 5 269 69 468 279 532 560 15 66
12 246 -6 310 -8 30 -15 58 -15 61 0 19 410 -70 588 -127 59 -18 113 -34 120
-34 19 0 -25 78 -145 259 -304 458 -696 823 -1076 1001 -125 59 -279 107 -412
130 -139 24 -376 26 -524 4z"/>
</g>
</svg>
